<?xml version="1.0" encoding="UTF-8" standalone="no"?>
<!-- Created with Inkscape (http://www.inkscape.org/) -->

<svg
   xmlns:dc="http://purl.org/dc/elements/1.1/"
   xmlns:cc="http://creativecommons.org/ns#"
   xmlns:rdf="http://www.w3.org/1999/02/22-rdf-syntax-ns#"
   xmlns:svg="http://www.w3.org/2000/svg"
   xmlns="http://www.w3.org/2000/svg"
   xmlns:sodipodi="http://sodipodi.sourceforge.net/DTD/sodipodi-0.dtd"
   xmlns:inkscape="http://www.inkscape.org/namespaces/inkscape"
   width="98.178375"
   height="98.185036"
   viewBox="0 0 27.708118 27.709998"
   version="1.1"
   id="svg3947"
   inkscape:version="0.48.5 r10040"
   sodipodi:docname="scibian_small_white.svg"
   inkscape:export-filename="/home/eh49f79n/TMI_Sources/packages/calibre/scibian-desktop/icons/png/scibian_small_white_256png.png"
   inkscape:export-xdpi="234.65898"
   inkscape:export-ydpi="234.65898">
  <defs
     id="defs3941" />
  <sodipodi:namedview
     id="base"
     pagecolor="#ffffff"
     bordercolor="#666666"
     borderopacity="1.0"
     inkscape:pageopacity="0.0"
     inkscape:pageshadow="2"
     inkscape:zoom="3.959798"
     inkscape:cx="19.083316"
     inkscape:cy="24.232813"
     inkscape:document-units="mm"
     inkscape:current-layer="g3100"
     showgrid="false"
     fit-margin-top="0"
     fit-margin-left="0"
     fit-margin-right="0"
     fit-margin-bottom="0"
     inkscape:window-width="1680"
     inkscape:window-height="1050"
     inkscape:window-x="1680"
     inkscape:window-y="0"
     inkscape:window-maximized="1"
     units="mm" />
  <metadata
     id="metadata3944">
    <rdf:RDF>
      <cc:Work
         rdf:about="">
        <dc:format>image/svg+xml</dc:format>
        <dc:type
           rdf:resource="http://purl.org/dc/dcmitype/StillImage" />
        <dc:title></dc:title>
      </cc:Work>
    </rdf:RDF>
  </metadata>
  <g
     inkscape:label="Calque 1"
     inkscape:groupmode="layer"
     id="layer1"
     transform="translate(-87.415154,-24.224818)">
    <g
       id="g3201"
       transform="matrix(0.26458333,0,0,0.26458333,70.939669,-73.769171)">
      <g
         id="g3222"
         inkscape:export-filename="/home/b51449/Images/cliparts/s9.png"
         inkscape:export-xdpi="99"
         inkscape:export-ydpi="99">
        <g
           id="text3003-0-6"
           style="font-size:93.42958069px;font-style:normal;font-weight:normal;line-height:125%;letter-spacing:0px;word-spacing:0px;fill:#000000;fill-opacity:1;stroke:none;font-family:Sans" />
        <g
           id="g3100"
           transform="translate(-2.9360176,-22.404574)">
          <path
             inkscape:connector-curvature="0"
             d="m 92.860719,457.69381 c -18.436783,3e-5 -27.655159,-5.7926 -27.655155,-17.3779 v -3.64375 c -4e-6,-11.58521 9.218372,-17.37784 27.655155,-17.37791 h 9.342961 c 1.49484,7e-5 2.46027,0.43608 2.89632,1.30802 0.49825,0.80979 0.74739,2.05551 0.74744,3.73718 -5e-5,1.6818 -0.24919,2.95867 -0.74744,3.83061 -0.43605,0.80979 -1.40148,1.21465 -2.89632,1.21459 h -9.623249 c -5.481227,6e-5 -9.374123,0.71635 -11.678698,2.14888 -2.242326,1.37035 -3.36348,3.08323 -3.363465,5.13863 v 3.64375 c -1.5e-5,1.99321 1.121139,3.70608 3.363465,5.13863 2.304575,1.43262 6.197471,2.14892 11.678698,2.14888 h 22.049389 c 18.4367,4e-5 27.65507,5.79267 27.65515,17.3779 v 4.67148 c -8e-5,11.58527 -9.21845,17.3779 -27.65515,17.3779 H 68.849317 c -1.494878,0 -2.49146,-0.40486 -2.989746,-1.21458 -0.436009,-0.87201 -0.654011,-2.14888 -0.654007,-3.83062 -4e-6,-1.68172 0.217998,-2.92745 0.654007,-3.73718 0.498286,-0.872 1.494868,-1.308 2.989746,-1.30801 h 46.060793 c 5.48114,10e-6 9.34289,-0.68514 11.58526,-2.05545 2.30453,-1.43258 3.45683,-3.1766 3.4569,-5.23206 v -4.67148 c -7e-5,-1.99314 -1.15237,-3.70601 -3.4569,-5.13863 -2.24237,-1.43256 -6.10412,-2.14885 -11.58526,-2.14888 H 92.860719"
             style="font-size:93.42958068999999455px;font-style:normal;font-variant:normal;font-weight:normal;font-stretch:normal;line-height:125%;letter-spacing:0px;word-spacing:0px;fill:#000000;fill-opacity:1;stroke:none;font-family:Neuropol;-inkscape-font-specification:Neuropol"
             id="path3359"
             transform="translate(-6.3844858e-8,4.3946897e-6)" />
          <g
             id="text28"
             style="font-size:28.22222136999999975px;font-style:normal;font-weight:normal;line-height:1.25000000000000000;letter-spacing:0px;word-spacing:0px;fill:#000000;fill-opacity:1;stroke:none;font-family:sans-serif"
             aria-label="10"
             transform="matrix(2.1611431,0,0,2.1611431,-257.52875,327.60054)">
            <path
               id="path30"
               style="font-size:24.69444465999999849px;font-style:normal;font-variant:normal;font-weight:normal;font-stretch:normal;fill:#000000;font-family:Neuropol;-inkscape-font-specification:Neuropol;fill-opacity:1"
               d="m 173.89909,51.94528 q 0,0.716139 -0.41981,0.938389 -0.4198,0.22225 -1.23472,0.22225 -0.79022,0 -1.21003,-0.22225 -0.4198,-0.22225 -0.4198,-0.938389 V 36.16553 q 0,-0.716139 0.4198,-0.938389 0.41981,-0.22225 1.21003,-0.22225 0.81492,0 1.23472,0.22225 0.41981,0.22225 0.41981,0.938389 z"
               inkscape:connector-curvature="0" />
            <path
               id="path32"
               style="font-size:24.69444465999999849px;font-style:normal;font-variant:normal;font-weight:normal;font-stretch:normal;fill:#000000;font-family:Neuropol;-inkscape-font-specification:Neuropol;fill-opacity:1"
               d="m 183.29687,53.007141 q -7.30956,0 -7.30956,-4.593167 v -8.717139 q 0,-4.593166 7.30956,-4.593166 h 7.18608 q 7.30956,0 7.30956,4.593166 v 8.717139 q 0,4.593167 -7.30956,4.593167 z m 7.0873,-2.667 q 2.17311,0 3.16089,-0.567972 0.98778,-0.567972 0.98778,-1.358195 v -8.717139 q 0,-0.814916 -0.98778,-1.358194 -0.98778,-0.567972 -3.16089,-0.567972 h -6.98853 q -2.17311,0 -3.16089,0.567972 -0.98777,0.543278 -0.98777,1.358194 v 8.717139 q 0,0.790223 0.98777,1.358195 0.98778,0.567972 3.16089,0.567972 z"
               inkscape:connector-curvature="0" />
          </g>
        </g>
      </g>
    </g>
  </g>
</svg>
