<?xml version="1.0" encoding="UTF-8" standalone="no"?>
<!-- Created with Inkscape (http://www.inkscape.org/) -->

<svg
   xmlns:dc="http://purl.org/dc/elements/1.1/"
   xmlns:cc="http://creativecommons.org/ns#"
   xmlns:rdf="http://www.w3.org/1999/02/22-rdf-syntax-ns#"
   xmlns:svg="http://www.w3.org/2000/svg"
   xmlns="http://www.w3.org/2000/svg"
   xmlns:xlink="http://www.w3.org/1999/xlink"
   xmlns:sodipodi="http://sodipodi.sourceforge.net/DTD/sodipodi-0.dtd"
   xmlns:inkscape="http://www.inkscape.org/namespaces/inkscape"
   width="188.02289mm"
   height="59.500912mm"
   viewBox="0 0 188.02289 59.500912"
   version="1.1"
   id="svg3862"
   inkscape:version="0.92.1 r15371"
   sodipodi:docname="scibian_10.svg"
   inkscape:export-filename="/home/fg22aadn/scibianimg/full.svg.png"
   inkscape:export-xdpi="89.970428"
   inkscape:export-ydpi="89.970428">
  <defs
     id="defs3856">
    <linearGradient
       gradientTransform="matrix(8.6436354,2.8198421e-7,7.7378788e-8,4.2424266,-2495.9551,-1797.7147)"
       inkscape:collect="always"
       xlink:href="#linearGradient3858"
       id="linearGradient3263"
       gradientUnits="userSpaceOnUse"
       x1="286.39282"
       y1="471.31348"
       x2="288.86465"
       y2="471.22672" />
    <linearGradient
       id="linearGradient3858">
      <stop
         style="stop-color:#5e70cc;stop-opacity:1;"
         offset="0"
         id="stop3860" />
      <stop
         style="stop-color:#5e70cc;stop-opacity:0;"
         offset="1"
         id="stop3862" />
    </linearGradient>
  </defs>
  <sodipodi:namedview
     id="base"
     pagecolor="#ffffff"
     bordercolor="#666666"
     borderopacity="1.0"
     inkscape:pageopacity="0.0"
     inkscape:pageshadow="2"
     inkscape:zoom="1.4"
     inkscape:cx="387.98426"
     inkscape:cy="93.408809"
     inkscape:document-units="mm"
     inkscape:current-layer="layer1"
     showgrid="false"
     fit-margin-top="0"
     fit-margin-left="0"
     fit-margin-right="0"
     fit-margin-bottom="0"
     inkscape:window-width="1366"
     inkscape:window-height="704"
     inkscape:window-x="0"
     inkscape:window-y="27"
     inkscape:window-maximized="1"
     showguides="false" />
  <metadata
     id="metadata3859">
    <rdf:RDF>
      <cc:Work
         rdf:about="">
        <dc:format>image/svg+xml</dc:format>
        <dc:type
           rdf:resource="http://purl.org/dc/dcmitype/StillImage" />
        <dc:title></dc:title>
      </cc:Work>
    </rdf:RDF>
  </metadata>
  <g
     inkscape:label="Calque 1"
     inkscape:groupmode="layer"
     id="layer1"
     transform="translate(-12.577843,-28.543179)">
    <rect
       inkscape:export-ydpi="99"
       inkscape:export-xdpi="99"
       inkscape:export-filename="/home/b51449/Images/cliparts/scibian9.png"
       style="fill:none;stroke:#000000;stroke-width:0.04491036;stroke-miterlimit:4;stroke-dasharray:none;stroke-opacity:1"
       id="rect3766"
       width="188.71257"
       height="60.179173"
       x="12.134797"
       y="27.983961" />
    <g
       transform="matrix(0.26458333,0,0,0.26458333,8.0344852,5.6427184)"
       style="font-style:normal;font-weight:normal;font-size:93.42958069px;line-height:125%;font-family:Sans;letter-spacing:0px;word-spacing:0px;fill:#000000;fill-opacity:1;stroke:none"
       id="text2997">
      <path
         inkscape:connector-curvature="0"
         d="m 348.44342,140.80688 h 36.53097 c 17.62698,5e-5 26.44049,5.41896 26.44057,16.25674 v 20.27422 c -8e-5,10.83784 -8.81359,16.25675 -26.44057,16.25675 h -21.95595 c -17.62706,0 -26.44058,-5.41891 -26.44057,-16.25675 v -47.46222 c -1e-5,-1.80624 0.46714,-2.98968 1.40144,-3.55033 0.99658,-0.56051 2.49145,-0.8408 4.48462,-0.84087 1.99315,7e-5 3.48802,0.28036 4.48462,0.84087 0.99657,0.56065 1.49486,1.74409 1.49487,3.55033 v 10.93126 m 0,9.43638 v 27.09458 c -1e-5,1.86861 1.18343,3.48805 3.55033,4.85834 2.36686,1.30802 6.16632,1.96203 11.39841,1.96202 h 21.20851 c 5.232,1e-5 9.03147,-0.654 11.39841,-1.96202 2.36682,-1.37029 3.55026,-2.98973 3.55032,-4.85834 v -20.27422 c -6e-5,-1.93084 -1.1835,-3.55028 -3.55032,-4.85834 -2.36694,-1.30797 -6.16641,-1.96197 -11.39841,-1.96202 h -36.15725"
         style="font-variant:normal;font-stretch:normal;font-family:Neuropol;-inkscape-font-specification:Neuropol"
         id="path3347" />
      <path
         inkscape:connector-curvature="0"
         d="m 431.29795,189.57712 c -2e-5,1.8063 -0.49831,2.98974 -1.49488,3.55032 -0.99659,0.56058 -2.49147,0.84087 -4.48462,0.84087 -1.99317,0 -3.48804,-0.28029 -4.48462,-0.84087 -0.9343,-0.56058 -1.40145,-1.74402 -1.40144,-3.55032 v -44.09876 c -10e-6,-1.80626 0.46714,-2.9897 1.40144,-3.55033 0.99658,-0.56052 2.49145,-0.84081 4.48462,-0.84087 1.99315,6e-5 3.48803,0.28035 4.48462,0.84087 0.99657,0.56063 1.49486,1.74407 1.49488,3.55033 v 44.09876 m -13.36043,-58.30006 c -1e-5,-1.9931 0.56057,-3.45683 1.68173,-4.39119 1.18343,-0.93423 3.08317,-1.40138 5.6992,-1.40145 2.61602,7e-5 4.48461,0.46722 5.60578,1.40145 1.18342,0.93436 1.77514,2.39809 1.77516,4.39119 -2e-5,1.99322 -0.59174,3.45695 -1.77516,4.39119 -1.12117,0.93435 -2.98976,1.4015 -5.60578,1.40144 -2.61603,6e-5 -4.51577,-0.46709 -5.6992,-1.40144 -1.12116,-0.93424 -1.68174,-2.39797 -1.68173,-4.39119"
         style="font-variant:normal;font-stretch:normal;font-family:Neuropol;-inkscape-font-specification:Neuropol"
         id="path3349" />
      <path
         inkscape:connector-curvature="0"
         d="m 465.09172,193.59459 c -17.62706,0 -26.44058,-5.41891 -26.44057,-16.25675 v -4.95177 c -10e-6,-10.83779 8.81351,-16.25671 26.44057,-16.25674 h 39.98786 v -0.0934 c -7e-5,-1.80627 -1.18351,-3.20771 -3.55033,-4.20433 -2.30466,-1.05883 -6.10412,-1.58826 -11.3984,-1.58831 h -8.78239 c -1.43263,5e-5 -2.36692,-0.37367 -2.80288,-1.12115 -0.43605,-0.80968 -0.65405,-1.99312 -0.65401,-3.55033 -4e-5,-1.61939 0.21796,-2.80283 0.65401,-3.55032 0.43596,-0.80967 1.37025,-1.21453 2.80288,-1.21458 h 9.1561 c 17.62698,5e-5 26.44049,5.41896 26.44058,16.25674 v 20.27422 c -9e-5,10.83784 -8.8136,16.25675 -26.44058,16.25675 h -25.41284 m 25.03913,-9.43639 c 5.23199,1e-5 9.03146,-0.654 11.3984,-1.96202 2.36682,-1.37029 3.55026,-2.98973 3.55033,-4.85834 v -12.14584 h -39.61414 c -5.23209,3e-5 -9.03155,0.65403 -11.39841,1.96202 -2.3669,1.30804 -3.55034,2.92748 -3.55033,4.85834 v 5.32548 c -1e-5,1.86861 1.18343,3.48805 3.55033,4.85834 2.36686,1.30802 6.16632,1.96203 11.39841,1.96202 h 24.66541"
         style="font-variant:normal;font-stretch:normal;font-family:Neuropol;-inkscape-font-specification:Neuropol"
         id="path3351" />
      <path
         inkscape:connector-curvature="0"
         d="m 530.41797,193.96831 c -1.99317,0 -3.48804,-0.28029 -4.48462,-0.84087 -0.9343,-0.56058 -1.40145,-1.74402 -1.40144,-3.55032 v -32.5135 c -1e-5,-10.83778 8.81351,-16.25669 26.44057,-16.25674 h 20.36765 c 17.62698,5e-5 26.44049,5.41896 26.44057,16.25674 v 32.5135 c -8e-5,1.8063 -0.49837,2.98974 -1.49488,3.55032 -0.99665,0.56058 -2.49152,0.84087 -4.48462,0.84087 -1.99323,0 -3.4881,-0.28029 -4.48461,-0.84087 -0.93437,-0.56058 -1.40151,-1.74402 -1.40145,-3.55032 v -32.5135 c -6e-5,-1.93084 -1.1835,-3.55028 -3.55032,-4.85834 -2.36694,-1.30797 -6.16641,-1.96197 -11.39841,-1.96202 H 551.3462 c -5.23209,5e-5 -9.03155,0.65405 -11.39841,1.96202 -2.3669,1.30806 -3.55034,2.9275 -3.55033,4.85834 v 32.5135 c -10e-6,1.8063 -0.4983,2.98974 -1.49487,3.55032 -0.9966,0.56058 -2.49147,0.84087 -4.48462,0.84087"
         style="font-variant:normal;font-stretch:normal;font-family:Neuropol;-inkscape-font-specification:Neuropol"
         id="path3353" />
    </g>
    <ellipse
       ry="77.67466"
       rx="48.329456"
       cy="151.80313"
       cx="-36.9771"
       inkscape:export-ydpi="99"
       inkscape:export-xdpi="99"
       inkscape:export-filename="/home/b51449/Images/cliparts/scibian9.png"
       transform="matrix(0.98169868,-0.19044081,0.9412827,0.33761943,0,0)"
       id="path3001"
       style="fill:none;stroke:url(#linearGradient3263);stroke-width:10.08777523;stroke-miterlimit:4;stroke-dasharray:none;stroke-opacity:1" />
    <g
       transform="matrix(0.26458333,0,0,0.26458333,8.0344852,5.6427184)"
       style="font-style:normal;font-weight:normal;font-size:93.42958069px;line-height:125%;font-family:Sans;letter-spacing:0px;word-spacing:0px;fill:#000000;fill-opacity:1;stroke:none"
       id="text3003">
      <path
         inkscape:connector-curvature="0"
         d="m 166.37743,164.2577 c -18.43678,3e-5 -27.65516,-5.7926 -27.65515,-17.3779 v -3.64375 c -1e-5,-11.58521 9.21837,-17.37784 27.65515,-17.37791 h 9.34296 c 1.49483,7e-5 2.46027,0.43608 2.89632,1.30802 0.49824,0.80979 0.74739,2.05551 0.74743,3.73718 -4e-5,1.68179 -0.24919,2.95866 -0.74743,3.83061 -0.43605,0.80978 -1.40149,1.21465 -2.89632,1.21459 h -9.62325 c -5.48122,6e-5 -9.37412,0.71635 -11.6787,2.14888 -2.24232,1.37035 -3.36348,3.08323 -3.36346,5.13863 v 3.64375 c -2e-5,1.99321 1.12114,3.70608 3.36346,5.13863 2.30458,1.43262 6.19748,2.14892 11.6787,2.14888 h 22.04938 c 18.4367,4e-5 27.65508,5.79266 27.65516,17.3779 v 4.67148 c -8e-5,11.58527 -9.21846,17.3779 -27.65516,17.3779 h -45.78049 c -1.49488,0 -2.49146,-0.40486 -2.98975,-1.21459 -0.43601,-0.872 -0.65401,-2.14887 -0.654,-3.83061 -1e-5,-1.68172 0.21799,-2.92745 0.654,-3.73718 0.49829,-0.872 1.49487,-1.30801 2.98975,-1.30802 h 46.06078 c 5.48115,1e-5 9.3429,-0.68513 11.58527,-2.05545 2.30453,-1.43257 3.45683,-3.17659 3.45689,-5.23205 v -4.67148 c -6e-5,-1.99314 -1.15236,-3.70602 -3.45689,-5.13863 -2.24237,-1.43256 -6.10412,-2.14885 -11.58527,-2.14888 h -22.04938"
         style="font-variant:normal;font-stretch:normal;font-family:Neuropol;-inkscape-font-specification:Neuropol"
         id="path3340" />
      <path
         inkscape:connector-curvature="0"
         d="m 248.38233,193.59459 c -17.62706,0 -26.44058,-5.41891 -26.44057,-16.25675 v -20.27422 c -10e-6,-10.83778 8.81351,-16.25669 26.44057,-16.25674 h 46.71479 c 1.43251,5e-5 2.3668,0.40491 2.80289,1.21458 0.43592,0.74749 0.65392,1.93093 0.654,3.55032 -8e-5,1.55721 -0.21808,2.74065 -0.654,3.55033 -0.43609,0.74748 -1.37038,1.1212 -2.80289,1.12115 h -46.34107 c -5.23208,5e-5 -9.03155,0.65405 -11.39841,1.96202 -2.3669,1.30806 -3.55034,2.9275 -3.55033,4.85834 v 20.27422 c -1e-5,1.86861 1.18343,3.48805 3.55033,4.85834 2.36686,1.30802 6.16633,1.96203 11.39841,1.96202 h 46.62136 c 1.43251,1e-5 2.33566,0.40487 2.70946,1.21459 0.43592,0.74744 0.65392,1.89974 0.654,3.45689 -8e-5,1.55716 -0.21808,2.7406 -0.654,3.55032 -0.3738,0.80973 -1.27695,1.21459 -2.70946,1.21459 h -46.99508"
         style="font-variant:normal;font-stretch:normal;font-family:Neuropol;-inkscape-font-specification:Neuropol"
         id="path3342" />
      <path
         inkscape:connector-curvature="0"
         d="m 318.04138,189.57712 c -1e-5,1.8063 -0.4983,2.98974 -1.49487,3.55032 -0.99659,0.56058 -2.49147,0.84087 -4.48462,0.84087 -1.99317,0 -3.48804,-0.28029 -4.48462,-0.84087 -0.9343,-0.56058 -1.40145,-1.74402 -1.40144,-3.55032 v -44.09876 c -1e-5,-1.80626 0.46714,-2.9897 1.40144,-3.55033 0.99658,-0.56052 2.49145,-0.84081 4.48462,-0.84087 1.99315,6e-5 3.48803,0.28035 4.48462,0.84087 0.99657,0.56063 1.49486,1.74407 1.49487,3.55033 v 44.09876 m -13.36043,-58.30006 c 0,-1.9931 0.56058,-3.45683 1.68174,-4.39119 1.18343,-0.93423 3.08317,-1.40138 5.6992,-1.40145 2.61602,7e-5 4.48461,0.46722 5.60578,1.40145 1.18342,0.93436 1.77514,2.39809 1.77516,4.39119 -2e-5,1.99322 -0.59174,3.45695 -1.77516,4.39119 -1.12117,0.93435 -2.98976,1.4015 -5.60578,1.40144 -2.61603,6e-5 -4.51577,-0.46709 -5.6992,-1.40144 -1.12116,-0.93424 -1.68174,-2.39797 -1.68174,-4.39119"
         style="font-variant:normal;font-stretch:normal;font-family:Neuropol;-inkscape-font-specification:Neuropol"
         id="path3344" />
    </g>
    <rect
       inkscape:export-ydpi="99"
       inkscape:export-xdpi="99"
       inkscape:export-filename="/home/b51449/Images/cliparts/scibian9.png"
       y="27.985123"
       x="16.691917"
       height="59.170296"
       width="153.82034"
       id="rect2996"
       style="fill:none;stroke:none;stroke-width:0.26458332" />
    <rect
       inkscape:export-ydpi="99"
       inkscape:export-xdpi="99"
       inkscape:export-filename="/home/b51449/Images/cliparts/scibian9.png"
       ry="1.4639221"
       y="38.815254"
       x="88.621269"
       height="3.1242354"
       width="3.976208"
       id="rect3800"
       style="fill:#5e70cc;fill-opacity:1;stroke:none;stroke-width:0.26458332" />
    <g
       aria-label="10"
       style="font-style:normal;font-weight:normal;font-size:28.22222137px;line-height:1.25;font-family:sans-serif;letter-spacing:0px;word-spacing:0px;fill:#5e70cc;fill-opacity:1;stroke:none;stroke-width:0.26458332"
       id="text28">
      <path
         d="m 173.89909,51.94528 q 0,0.716139 -0.41981,0.938389 -0.4198,0.22225 -1.23472,0.22225 -0.79022,0 -1.21003,-0.22225 -0.4198,-0.22225 -0.4198,-0.938389 V 36.16553 q 0,-0.716139 0.4198,-0.938389 0.41981,-0.22225 1.21003,-0.22225 0.81492,0 1.23472,0.22225 0.41981,0.22225 0.41981,0.938389 z"
         style="font-style:normal;font-variant:normal;font-weight:normal;font-stretch:normal;font-size:24.69444466px;font-family:Neuropol;-inkscape-font-specification:Neuropol;fill:#5e70cc;stroke-width:0.26458332"
         id="path30" />
      <path
         d="m 183.29687,53.007141 q -7.30956,0 -7.30956,-4.593167 v -8.717139 q 0,-4.593166 7.30956,-4.593166 h 7.18608 q 7.30956,0 7.30956,4.593166 v 8.717139 q 0,4.593167 -7.30956,4.593167 z m 7.0873,-2.667 q 2.17311,0 3.16089,-0.567972 0.98778,-0.567972 0.98778,-1.358195 v -8.717139 q 0,-0.814916 -0.98778,-1.358194 -0.98778,-0.567972 -3.16089,-0.567972 h -6.98853 q -2.17311,0 -3.16089,0.567972 -0.98777,0.543278 -0.98777,1.358194 v 8.717139 q 0,0.790223 0.98777,1.358195 0.98778,0.567972 3.16089,0.567972 z"
         style="font-style:normal;font-variant:normal;font-weight:normal;font-stretch:normal;font-size:24.69444466px;font-family:Neuropol;-inkscape-font-specification:Neuropol;fill:#5e70cc;stroke-width:0.26458332"
         id="path32" />
    </g>
  </g>
</svg>
