<?xml version="1.0" encoding="UTF-8" standalone="no"?>
<!-- Created with Inkscape (http://www.inkscape.org/) -->
<svg xmlns:dc="http://purl.org/dc/elements/1.1/" xmlns:cc="http://creativecommons.org/ns#" xmlns:rdf="http://www.w3.org/1999/02/22-rdf-syntax-ns#" xmlns:svg="http://www.w3.org/2000/svg" xmlns="http://www.w3.org/2000/svg" xmlns:xlink="http://www.w3.org/1999/xlink" version="1.1" width="660.54376" height="249.65668" id="svg3886">
  <defs id="defs3888">
    <linearGradient x1="286.39282" y1="471.31348" x2="288.86465" y2="471.22672" id="linearGradient3864" xlink:href="#linearGradient3858" gradientUnits="userSpaceOnUse"/>
    <linearGradient id="linearGradient3858">
      <stop id="stop3860" style="stop-color:#5e70cc;stop-opacity:1" offset="0"/>
      <stop id="stop3862" style="stop-color:#5e70cc;stop-opacity:0" offset="1"/>
    </linearGradient>
    <linearGradient x1="286.39282" y1="471.31348" x2="288.86465" y2="471.22672" id="linearGradient3028" xlink:href="#linearGradient3858" gradientUnits="userSpaceOnUse"/>
  </defs>
  <metadata id="metadata3891">
    <rdf:RDF>
      <cc:Work rdf:about="">
        <dc:format>image/svg+xml</dc:format>
        <dc:type rdf:resource="http://purl.org/dc/dcmitype/StillImage"/>
        <dc:title/>
      </cc:Work>
    </rdf:RDF>
  </metadata>
  <g transform="translate(-26.962531,-84.925842)" id="layer1">
    <rect width="907.8125" height="342.1875" x="-215.625" y="-3.8878207" id="rect3766" style="fill:none;stroke:none"/>
    <g id="g3840">
      <g id="g3821">
        <g id="g3022">
          <g id="text2997" style="font-size:104.30049133px;font-style:normal;font-weight:normal;line-height:125%;letter-spacing:0px;word-spacing:0px;fill:#000000;fill-opacity:1;stroke:none;font-family:Sans">
            <path d="m 385.56437,147.84706 40.78149,0 c 19.67795,6e-5 29.51695,6.04948 29.51704,18.14829 l 0,22.6332 c -9e-5,12.09887 -9.83909,18.14829 -29.51704,18.14829 l -24.51062,0 c -19.67804,0 -29.51704,-6.04942 -29.51704,-18.14829 l 0,-52.98464 c 0,-2.01641 0.5215,-3.33755 1.56451,-3.96342 1.11253,-0.62573 2.78134,-0.93863 5.00642,-0.93871 2.22507,8e-5 3.89387,0.31298 5.00643,0.93871 1.11252,0.62587 1.66879,1.94701 1.66881,3.96342 l 0,12.20315 m 0,10.53435 0,30.24714 c -2e-5,2.08603 1.32112,3.8939 3.96341,5.42363 2.64226,1.46022 6.88381,2.19032 12.72466,2.19031 l 23.67622,0 c 5.84076,1e-5 10.08231,-0.73009 12.72466,-2.19031 2.6422,-1.52973 3.96334,-3.3376 3.96341,-5.42363 l 0,-22.6332 c -7e-5,-2.1555 -1.32121,-3.96338 -3.96341,-5.42363 -2.64235,-1.46016 -6.8839,-2.19026 -12.72466,-2.19031 l -40.36429,0" id="path3014" style="font-variant:normal;font-stretch:normal;font-family:Neuropol;-inkscape-font-specification:Neuropol"/>
            <path d="m 478.05934,202.29192 c -2e-5,2.01648 -0.55628,3.33762 -1.66881,3.96342 -1.11255,0.6258 -2.78136,0.9387 -5.00642,0.9387 -2.22509,0 -3.89389,-0.3129 -5.00642,-0.9387 -1.04301,-0.6258 -1.56452,-1.94694 -1.56451,-3.96342 l 0,-49.22983 c -10e-6,-2.01642 0.5215,-3.33756 1.56451,-3.96342 1.11253,-0.62575 2.78133,-0.93865 5.00642,-0.93871 2.22506,6e-5 3.89387,0.31296 5.00642,0.93871 1.11253,0.62586 1.66879,1.947 1.66881,3.96342 l 0,49.22983 m -14.91497,-65.08351 c 0,-2.225 0.6258,-3.85904 1.87741,-4.90212 1.32113,-1.04293 3.44191,-1.56443 6.36233,-1.56451 2.9204,8e-5 5.00641,0.52158 6.25803,1.56451 1.32112,1.04308 1.98169,2.67712 1.98171,4.90212 -2e-5,2.22515 -0.66059,3.85919 -1.98171,4.90213 -1.25162,1.04306 -3.33763,1.56457 -6.25803,1.5645 -2.92042,7e-5 -5.0412,-0.52144 -6.36233,-1.5645 -1.25161,-1.04294 -1.87741,-2.67698 -1.87741,-4.90213" id="path3016" style="font-variant:normal;font-stretch:normal;font-family:Neuropol;-inkscape-font-specification:Neuropol"/>
            <path d="m 515.78515,206.77684 c -19.67804,0 -29.51704,-6.04942 -29.51704,-18.14829 l 0,-5.52792 c 0,-12.09882 9.839,-18.14824 29.51704,-18.14829 l 44.64061,0 0,-0.1043 c -8e-5,-2.01643 -1.32121,-3.58094 -3.96342,-4.69352 -2.57281,-1.18202 -6.81436,-1.77306 -12.72466,-1.77311 l -9.80424,0 c -1.59933,5e-5 -2.64233,-0.41715 -3.12902,-1.2516 -0.48678,-0.90389 -0.73015,-2.22503 -0.7301,-3.96342 -5e-5,-1.80782 0.24332,-3.12896 0.7301,-3.96342 0.48669,-0.90388 1.52969,-1.35585 3.12902,-1.35591 l 10.22144,0 c 19.67795,6e-5 29.51695,6.04948 29.51704,18.14829 l 0,22.6332 c -9e-5,12.09887 -9.83909,18.14829 -29.51704,18.14829 l -28.36973,0 m 27.95253,-10.53435 c 5.84076,1e-5 10.08231,-0.73009 12.72466,-2.19031 2.64221,-1.52973 3.96334,-3.3376 3.96342,-5.42363 l 0,-13.55906 -44.22341,0 c -5.84085,3e-5 -10.0824,0.73014 -12.72466,2.19031 -2.64229,1.46024 -3.96343,3.26811 -3.96342,5.42363 l 0,5.94512 c -1e-5,2.08603 1.32113,3.8939 3.96342,5.42363 2.64226,1.46022 6.88381,2.19032 12.72466,2.19031 l 27.53533,0" id="path3018" style="font-variant:normal;font-stretch:normal;font-family:Neuropol;-inkscape-font-specification:Neuropol"/>
            <path d="m 588.71238,207.19404 c -2.22509,0 -3.8939,-0.3129 -5.00643,-0.9387 -1.04301,-0.6258 -1.56451,-1.94694 -1.5645,-3.96342 l 0,-36.29657 c -10e-6,-12.09881 9.83899,-18.14823 29.51703,-18.14829 l 22.73751,0 c 19.67795,6e-5 29.51695,6.04948 29.51704,18.14829 l 0,36.29657 c -9e-5,2.01648 -0.55635,3.33762 -1.66881,3.96342 -1.11262,0.6258 -2.78143,0.9387 -5.00642,0.9387 -2.22515,0 -3.89396,-0.3129 -5.00642,-0.9387 -1.04308,-0.6258 -1.56458,-1.94694 -1.56451,-3.96342 l 0,-36.29657 c -7e-5,-2.1555 -1.32121,-3.96338 -3.96342,-5.42363 -2.64235,-1.46016 -6.88389,-2.19026 -12.72466,-2.19031 l -21.9031,0 c -5.84086,5e-5 -10.08241,0.73015 -12.72466,2.19031 -2.6423,1.46025 -3.96344,3.26813 -3.96342,5.42363 l 0,36.29657 c -2e-5,2.01648 -0.55629,3.33762 -1.66881,3.96342 -1.11255,0.6258 -2.78136,0.9387 -5.00642,0.9387" id="path3020" style="font-variant:normal;font-stretch:normal;font-family:Neuropol;-inkscape-font-specification:Neuropol"/>
          </g>
          <path d="m 290.07556,459.5289 a 5.5913339,18.309015 0 1 1 -11.18267,0 5.5913339,18.309015 0 1 1 11.18267,0 z" transform="matrix(29.471868,-6.1202369,13.869711,5.325416,-14400.495,-497.25724)" id="path3001" style="fill:none;stroke:url(#linearGradient3028);stroke-width:1.66586578;stroke-miterlimit:4;stroke-opacity:1;stroke-dasharray:none"/>
          <g id="text3003" style="font-size:104.30049133px;font-style:normal;font-weight:normal;line-height:125%;letter-spacing:0px;word-spacing:0px;fill:#000000;fill-opacity:1;stroke:none;font-family:Sans">
            <path d="m 182.31426,174.02649 c -20.58198,3e-5 -30.87295,-6.4666 -30.87295,-19.3999 l 0,-4.06771 c 0,-12.9332 10.29097,-19.39982 30.87295,-19.3999 l 10.43005,0 c 1.66876,8e-5 2.74653,0.48681 3.23331,1.46021 0.55622,0.90401 0.83436,2.29468 0.83441,4.17202 -5e-5,1.87748 -0.27819,3.30292 -0.83441,4.27632 -0.48678,0.904 -1.56455,1.35597 -3.23331,1.35591 l -10.74295,0 c -6.11899,6e-5 -10.46484,0.7997 -13.03756,2.39891 -2.50324,1.5298 -3.75484,3.44197 -3.75482,5.73653 l 0,4.06771 c -2e-5,2.22513 1.25158,4.13731 3.75482,5.73653 2.57272,1.59932 6.91857,2.39896 13.03756,2.39891 l 24.61491,0 c 20.58189,5e-5 30.87286,6.46667 30.87295,19.39989 l 0,5.21503 c -9e-5,12.93327 -10.29106,19.39989 -30.87295,19.39989 l -51.10724,0 c -1.66881,0 -2.78135,-0.45197 -3.33761,-1.35591 -0.48674,-0.97347 -0.73011,-2.3989 -0.73011,-4.27632 0,-1.8774 0.24337,-3.26807 0.73011,-4.17202 0.55626,-0.97346 1.6688,-1.46019 3.33761,-1.4602 l 51.42014,0 c 6.1189,1e-5 10.42998,-0.76486 12.93326,-2.29461 2.57268,-1.59926 3.85905,-3.5462 3.85912,-5.84083 l 0,-5.21503 c -7e-5,-2.22505 -1.28644,-4.13722 -3.85912,-5.73652 -2.50328,-1.59925 -6.81436,-2.39888 -12.93326,-2.39891 l -24.61491,0" id="path3007" style="font-variant:normal;font-stretch:normal;font-family:Neuropol;-inkscape-font-specification:Neuropol"/>
            <path d="m 273.86075,206.77684 c -19.67804,0 -29.51704,-6.04942 -29.51704,-18.14829 l 0,-22.6332 c 0,-12.09881 9.839,-18.14823 29.51704,-18.14829 l 52.15025,0 c 1.59919,6e-5 2.64219,0.45203 3.12901,1.35591 0.48665,0.83446 0.73002,2.1556 0.73011,3.96342 -9e-5,1.73839 -0.24346,3.05953 -0.73011,3.96342 -0.48682,0.83445 -1.52982,1.25165 -3.12901,1.2516 l -51.73305,0 c -5.84085,5e-5 -10.0824,0.73015 -12.72466,2.19031 -2.64229,1.46025 -3.96343,3.26813 -3.96341,5.42363 l 0,22.6332 c -2e-5,2.08603 1.32112,3.8939 3.96341,5.42363 2.64226,1.46022 6.88381,2.19032 12.72466,2.19031 l 52.04595,0 c 1.59919,1e-5 2.60742,0.45198 3.02471,1.35591 0.48665,0.83441 0.73002,2.12078 0.73011,3.85912 -9e-5,1.73834 -0.24346,3.05948 -0.73011,3.96341 -0.41729,0.90394 -1.42552,1.35591 -3.02471,1.35591 l -52.46315,0" id="path3009" style="font-variant:normal;font-stretch:normal;font-family:Neuropol;-inkscape-font-specification:Neuropol"/>
            <path d="m 351.62492,202.29192 c -10e-6,2.01648 -0.55628,3.33762 -1.6688,3.96342 -1.11256,0.6258 -2.78136,0.9387 -5.00643,0.9387 -2.22508,0 -3.89389,-0.3129 -5.00642,-0.9387 -1.04301,-0.6258 -1.56451,-1.94694 -1.56451,-3.96342 l 0,-49.22983 c 0,-2.01642 0.5215,-3.33756 1.56451,-3.96342 1.11253,-0.62575 2.78134,-0.93865 5.00642,-0.93871 2.22507,6e-5 3.89387,0.31296 5.00643,0.93871 1.11252,0.62586 1.66879,1.947 1.6688,3.96342 l 0,49.22983 m -14.91497,-65.08351 c 0,-2.225 0.6258,-3.85904 1.87741,-4.90212 1.32114,-1.04293 3.44191,-1.56443 6.36233,-1.56451 2.9204,8e-5 5.00641,0.52158 6.25803,1.56451 1.32112,1.04308 1.98169,2.67712 1.98171,4.90212 -2e-5,2.22515 -0.66059,3.85919 -1.98171,4.90213 -1.25162,1.04306 -3.33763,1.56457 -6.25803,1.5645 -2.92042,7e-5 -5.04119,-0.52144 -6.36233,-1.5645 -1.25161,-1.04294 -1.87741,-2.67698 -1.87741,-4.90213" id="path3011" style="font-variant:normal;font-stretch:normal;font-family:Neuropol;-inkscape-font-specification:Neuropol"/>
          </g>
          <rect width="649.01276" height="249.65668" x="33.106365" y="84.925842" id="rect2996" style="fill:none;stroke:none"/>
          <rect width="16.776777" height="13.182058" ry="6.1767135" x="336.59723" y="130.62132" id="rect3800" style="fill:#5e70cc;fill-opacity:1;stroke:none"/>
        </g>
      </g>
    </g>
  </g>
</svg>